<?xml version="1.0" encoding="utf-8"?>
<!-- Generator: Adobe Illustrator 22.0.1, SVG Export Plug-In . SVG Version: 6.00 Build 0)  -->
<svg version="1.1" id="Livello_1" xmlns="http://www.w3.org/2000/svg" xmlns:xlink="http://www.w3.org/1999/xlink" x="0px" y="0px"
	 viewBox="0 0 607.4 286.6" style="enable-background:new 0 0 607.4 286.6;" xml:space="preserve">
<style type="text/css">
	.st0{fill:#F18619;fill-opacity:0;}
	.st1{fill:none;stroke:#B2B2B2;stroke-miterlimit:10;}
	.st2{fill:#ABBBE2;}
	.st3{fill:#ED6C86;stroke:#FFFFFF;stroke-miterlimit:10;}
	.st4{fill:#2EAC68;stroke:#FFFFFF;stroke-miterlimit:10;}
	.st5{fill:#ABBBE2;stroke:#FFFFFF;stroke-miterlimit:10;}
	.st6{fill:#ED6C86;}
	.st7{fill:none;stroke:#B2B2B2;stroke-linecap:round;stroke-miterlimit:10;}
	.st8{fill:#FFDD08;}
	.st9{fill:#B2B2B2;}
	.st10{fill:none;stroke:#3D3D3B;stroke-linecap:round;stroke-miterlimit:10;}
	.st11{fill:none;stroke:#FFDD08;stroke-linecap:round;stroke-miterlimit:10;}
	.st12{fill:#FFDD08;stroke:#FFFFFF;stroke-miterlimit:10;}
</style>
<title>costellazione</title>
<g>
	<rect x="243.7" y="93.1" class="st0" width="35.6" height="33.6"/>
	
		<ellipse transform="matrix(0.9108 -0.4129 0.4129 0.9108 -22.2762 117.9157)" class="st1" cx="261.7" cy="110.5" rx="5.2" ry="16.9"/>
	
		<ellipse transform="matrix(9.776060e-02 -0.9952 0.9952 9.776060e-02 125.9739 360.0504)" class="st1" cx="261.6" cy="110.5" rx="5.2" ry="16.9"/>
	<ellipse transform="matrix(0.5823 -0.813 0.813 0.5823 19.4992 258.9347)" class="st1" cx="261.7" cy="110.5" rx="16.9" ry="5.2"/>
	<circle class="st2" cx="261.7" cy="110.5" r="2"/>
	<circle class="st3" cx="257.8" cy="95.9" r="2"/>
	<circle class="st3" cx="276.7" cy="114.4" r="2"/>
	<circle class="st3" cx="251" cy="121.8" r="2"/>
</g>
<g>
	<rect x="527" y="145.7" class="st0" width="54.2" height="47.7"/>
	<path class="st1" d="M563.2,172.5c0,5.3-4.3,9.6-9.6,9.6s-9.6-4.3-9.6-9.6s4.3-9.6,9.6-9.6l0,0
		C558.9,162.9,563.2,167.2,563.2,172.5z"/>
	<line class="st1" x1="534.1" y1="152.4" x2="546.1" y2="166.4"/>
	<circle class="st4" cx="531.8" cy="149.7" r="3.6"/>
	<line class="st1" x1="569" y1="157.7" x2="560.9" y2="166.4"/>
	<circle class="st5" cx="570.5" cy="156" r="2.3"/>
	<line class="st1" x1="575.8" y1="182.1" x2="562.2" y2="176.9"/>
	<circle class="st3" cx="578.4" cy="183.2" r="2.8"/>
	<line class="st1" x1="548.7" y1="190.5" x2="550.8" y2="181.7"/>
	<circle class="st4" cx="548.3" cy="192.2" r="1.7"/>
	<line class="st1" x1="533.8" y1="183.1" x2="544.9" y2="176.8"/>
	<circle class="st3" cx="531.7" cy="184.4" r="2.5"/>
</g>
<g>
	<path class="st6" d="M193,72.8l5.3-4.7l11.6,13c0,0,3.8,5,7.9,1.3l4.7,5.2c0,0-8.6,8.6-15.9,0.4L193,72.8z"/>
	<path class="st2" d="M211,56.6l-5.3,4.7l11.6,13c0,0,4.5,4.4,0.4,8l4.7,5.2c0,0,9.5-7.5,2.2-15.7L211,56.6z"/>
	<line class="st7" x1="191.9" y1="71.5" x2="197.2" y2="66.8"/>
	<line class="st7" x1="204.5" y1="60.2" x2="209.9" y2="55.4"/>
</g>
<g>
	<path class="st8" d="M218.6,103.8c-10.5-5.4-14.7,7.1-14.1,10.8c0.7,4.1-0.4,6.3-0.4,6.3l-1.9,3.7l4.5,2.3l4.5,2.3l1.9-3.7
		c0,0,1.2-2.1,4.9-3.9C221.4,119.9,229.1,109.2,218.6,103.8z"/>
	<rect x="204" y="124.4" transform="matrix(0.4568 -0.8896 0.8896 0.4568 -3.5077 253.0276)" class="st9" width="2.9" height="10"/>
	<line class="st10" x1="208.5" y1="123.4" x2="211" y2="118.7"/>
	<line class="st10" x1="213.5" y1="120" x2="208.4" y2="117.4"/>
</g>
<g>
	<rect x="250" y="54.8" class="st0" width="24.8" height="21.4"/>
	<circle class="st8" cx="261.5" cy="65.4" r="1.8"/>
	<path class="st1" d="M263.1,63.2c0.9,0.4,1.4,1.3,1.2,2.3h8c0,0,0.7-5.3-4.9-8.9L263.1,63.2z"/>
	<path class="st1" d="M262.9,67.7c-0.7,0.6-1.8,0.6-2.6,0l-3.9,7c0,0,4.3,3.2,10.2,0L262.9,67.7z"/>
	<path class="st1" d="M258.8,65.4c-0.2-1,0.4-2,1.3-2.3l-4-6.8c0,0-5,2.1-5.3,8.8L258.8,65.4z"/>
	<path class="st11" d="M257.6,56.4c2.5-1.4,5.5-1.4,7.9,0"/>
	<path class="st11" d="M271.8,66.8c-0.3,2.9-2,5.4-4.5,6.7"/>
	<path class="st11" d="M255.8,73.4c-2.5-1.5-4.1-4.2-4.2-7.2"/>
</g>
<g>
	<rect x="548.3" y="69.6" class="st0" width="30.4" height="33.3"/>
	<polyline class="st1" points="563.9,71.2 570.7,86.6 558.7,86.4 567.2,100.5 549.3,100.1 	"/>
	<line class="st1" x1="570.7" y1="86.6" x2="577.1" y2="85.5"/>
	<line class="st1" x1="558.7" y1="86.4" x2="549.8" y2="90.4"/>
	<ellipse transform="matrix(0.9628 -0.2702 0.2702 0.9628 -2.564 154.1744)" class="st12" cx="558.7" cy="86.4" rx="1.6" ry="1.6"/>
	
		<ellipse transform="matrix(0.9628 -0.2702 0.2702 0.9628 -6.6349 152.2018)" class="st4" cx="549.5" cy="100.2" rx="1.8" ry="1.8"/>
	
		<ellipse transform="matrix(0.9628 -0.2702 0.2702 0.9628 -6.0577 156.9955)" class="st3" cx="567.2" cy="100.5" rx="1.6" ry="1.6"/>
	<ellipse transform="matrix(0.9628 -0.2702 0.2702 0.9628 -3.9302 152.0497)" class="st3" cx="550.3" cy="90.3" rx="1.2" ry="1.2"/>
	<ellipse transform="matrix(0.9628 -0.2702 0.2702 0.9628 -1.6364 159.1127)" class="st4" cx="577.1" cy="85.5" rx="1.6" ry="1.6"/>
	<ellipse transform="matrix(0.9628 -0.2702 0.2702 0.9628 1.7365 155.014)" class="st5" cx="563.9" cy="71.2" rx="1.6" ry="1.6"/>
	<ellipse transform="matrix(0.9628 -0.2702 0.2702 0.9628 -2.1716 157.4242)" class="st5" cx="570.7" cy="86.6" rx="1.1" ry="1.1"/>
</g>
<g>
	
		<rect x="470.6" y="53.6" transform="matrix(0.7427 -0.6696 0.6696 0.7427 74.1827 353.6758)" class="st0" width="53.5" height="53.5"/>
	<ellipse transform="matrix(0.9941 -0.1087 0.1087 0.9941 -5.5179 54.3762)" class="st1" cx="496" cy="77.8" rx="8.2" ry="26.5"/>
	
		<ellipse transform="matrix(0.4029 -0.9152 0.9152 0.4029 224.7372 500.2622)" class="st1" cx="495.8" cy="77.9" rx="8.2" ry="26.5"/>
	<ellipse transform="matrix(0.8065 -0.5912 0.5912 0.8065 49.9643 308.2914)" class="st1" cx="496" cy="77.8" rx="26.5" ry="8.2"/>
	<circle class="st2" cx="496" cy="77.9" r="3.1"/>
	<circle class="st3" cx="497.4" cy="54.1" r="3.1"/>
	<circle class="st3" cx="516.3" cy="91" r="3.1"/>
	<circle class="st3" cx="474.6" cy="89.4" r="3.1"/>
</g>
<g>
	<rect x="345.6" y="226.4" class="st0" width="54.3" height="52.5"/>
	
		<ellipse transform="matrix(0.6762 -0.7367 0.7367 0.6762 -64.6719 356.459)" class="st1" cx="373.2" cy="251.8" rx="26.5" ry="8.2"/>
	
		<ellipse transform="matrix(0.954 -0.2999 0.2999 0.954 -58.3372 123.5123)" class="st1" cx="373.2" cy="251.8" rx="8.2" ry="26.5"/>
	
		<ellipse transform="matrix(0.2173 -0.9761 0.9761 0.2173 46.3804 561.3911)" class="st1" cx="373.2" cy="251.8" rx="8.2" ry="26.5"/>
	<ellipse class="st2" cx="373.2" cy="251.8" rx="3.1" ry="3.1"/>
	<ellipse class="st3" cx="391.9" cy="237.2" rx="3.1" ry="3.1"/>
	<ellipse class="st3" cx="376.7" cy="275.8" rx="3.1" ry="3.1"/>
	<ellipse class="st3" cx="350.4" cy="243.3" rx="3.1" ry="3.1"/>
</g>
<g>
	<rect x="413.9" y="37.9" class="st0" width="39.4" height="35.9"/>
	<path class="st1" d="M439.9,57.8c0,4-3.2,7.2-7.2,7.1c-4,0-7.2-3.2-7.1-7.2c0-4,3.2-7.1,7.2-7.1C436.7,50.6,439.9,53.8,439.9,57.8
		L439.9,57.8z"/>
	<line class="st1" x1="418.2" y1="42.9" x2="427.2" y2="53.3"/>
	<circle class="st4" cx="416.5" cy="40.8" r="2.6"/>
	<line class="st1" x1="444.2" y1="46.8" x2="438.2" y2="53.3"/>
	<circle class="st5" cx="445.4" cy="45.6" r="1.7"/>
	<line class="st1" x1="449.3" y1="65" x2="439.2" y2="61.1"/>
	<circle class="st3" cx="451.2" cy="65.8" r="2.1"/>
	<line class="st1" x1="429.1" y1="71.2" x2="430.7" y2="64.7"/>
	<circle class="st4" cx="428.8" cy="72.5" r="1.3"/>
	<line class="st1" x1="418" y1="65.8" x2="426.3" y2="61"/>
	<circle class="st3" cx="416.4" cy="66.7" r="1.8"/>
</g>
<g>
	<path class="st6" d="M564.9,136.8l-3.6-2.2l5.5-8.8c0,0,2.2-3-0.6-4.7l2.2-3.5c0,0,6.3,3.4,2.9,9L564.9,136.8z"/>
	<path class="st2" d="M552.7,129.3l3.6,2.2l5.5-8.8c0,0,1.7-3.3,4.5-1.6l2.2-3.5c0,0-5.9-4.2-9.3,1.4L552.7,129.3z"/>
	<line class="st7" x1="564.4" y1="137.7" x2="560.8" y2="135.4"/>
	<line class="st7" x1="555.8" y1="132.4" x2="552.1" y2="130.1"/>
</g>
<g>
	<path class="st6" d="M238.8,149.6l3.7,2.1l-5.2,9c0,0-2.1,3.1,0.7,4.7l-2,3.6c0,0-6.5-3.2-3.2-8.8L238.8,149.6z"/>
	<path class="st2" d="M251.3,156.7l-3.7-2.1l-5.2,9c0,0-1.6,3.4-4.4,1.8l-2,3.6c0,0,6,3.9,9.3-1.7L251.3,156.7z"/>
	<line class="st7" x1="239.3" y1="148.8" x2="243" y2="150.9"/>
	<line class="st7" x1="248.1" y1="153.8" x2="251.8" y2="155.9"/>
</g>
<g>
	<path class="st8" d="M347.5,42.1c-7.7,3.7-2.4,11.6,0.1,12.9c1.4,0.6,2.6,1.7,3.5,3l1.3,2.7l3.3-1.6l3.3-1.5l-1.3-2.8
		c-0.5-1.5-0.5-3.1-0.1-4.6C358,47.5,355.2,38.4,347.5,42.1z"/>
	
		<rect x="352.9" y="59.8" transform="matrix(0.9015 -0.4329 0.4329 0.9015 8.7956 160.3472)" class="st9" width="7.3" height="2.1"/>
	<line class="st10" x1="354.4" y1="56.5" x2="352.7" y2="53"/>
	<line class="st10" x1="354.6" y1="52.1" x2="350.9" y2="53.9"/>
</g>
<g>
	<path class="st8" d="M120.2,92.1c8.1,2.8,9.8-6.6,9-9.3c-0.6-1.4-0.7-3-0.4-4.5l1-2.9l-3.5-1.2l-3.4-1.2l-1,2.9
		c-0.7,1.4-1.8,2.5-3.1,3.3C116.4,80.9,112.1,89.3,120.2,92.1z"/>
	
		<rect x="125.8" y="68.7" transform="matrix(0.3215 -0.9469 0.9469 0.3215 17.5682 169.2558)" class="st9" width="2.1" height="7.3"/>
	<line class="st10" x1="125.3" y1="77" x2="124.1" y2="80.6"/>
	<line class="st10" x1="122.1" y1="79.9" x2="126" y2="81.3"/>
</g>
<g>
	<rect x="278.5" y="133" class="st0" width="38.5" height="38.5"/>
	<circle class="st8" cx="297.3" cy="152.6" r="3"/>
	<path class="st1" d="M297.8,148.1c1.6-0.2,3.2,0.7,3.7,2.3l11.8-6.5c0,0-3.2-8.3-14.5-9.2L297.8,148.1z"/>
	<path class="st1" d="M301.3,155c-0.6,1.5-2.2,2.4-3.8,2.1v13.5c0,0,8.9,1.2,15.1-8.2L301.3,155z"/>
	<path class="st1" d="M293.3,154.9c-1-1.3-1-3.1,0-4.3l-11.6-6.9c0,0-5.5,7.1-0.5,17.2L293.3,154.9z"/>
	<path class="st11" d="M284.3,142.6c2.6-4.1,7-6.5,11.8-6.4"/>
	<path class="st11" d="M313.7,146.4c1.9,4.4,1.5,9.5-1.3,13.5"/>
	<path class="st11" d="M295.5,169.2c-5-0.2-9.5-2.9-12-7.3"/>
</g>
<g>
	<rect x="291.3" y="58.3" class="st0" width="52.2" height="58.1"/>
	<polyline class="st1" points="340.4,104.5 312.3,103.6 321.3,85.7 293.9,88.2 307.5,61.6 	"/>
	<line class="st1" x1="312.3" y1="103.6" x2="309.2" y2="114"/>
	<line class="st1" x1="321.3" y1="85.7" x2="321.8" y2="69.3"/>
	<circle class="st12" cx="321.3" cy="85.7" r="2.6"/>
	<circle class="st4" cx="307.3" cy="61.8" r="3"/>
	<circle class="st3" cx="293.9" cy="88.2" r="2.6"/>
	<circle class="st3" cx="321.6" cy="70.2" r="2"/>
	<circle class="st4" cx="309.2" cy="114" r="2.6"/>
	<circle class="st5" cx="340.4" cy="104.5" r="2.6"/>
	<circle class="st5" cx="312.3" cy="103.6" r="1.8"/>
</g>
<g>
	<rect x="337.8" y="126.7" class="st0" width="39.4" height="42.5"/>
	<ellipse class="st1" cx="357.4" cy="147.6" rx="6.3" ry="20.2"/>
	<ellipse transform="matrix(0.5 -0.866 0.866 0.5 50.7562 383.3181)" class="st1" cx="357.3" cy="147.7" rx="6.3" ry="20.2"/>
	<ellipse transform="matrix(0.866 -0.5 0.5 0.866 -25.966 198.4868)" class="st1" cx="357.4" cy="147.7" rx="20.2" ry="6.3"/>
	<circle class="st2" cx="357.4" cy="147.6" r="2.3"/>
	<circle class="st3" cx="360.4" cy="129.8" r="2.3"/>
	<circle class="st3" cx="371.7" cy="159.3" r="2.3"/>
	<circle class="st3" cx="340.3" cy="154.6" r="2.3"/>
</g>
<g>
	<rect x="441.7" y="165.5" class="st0" width="35.2" height="42.8"/>
	<path class="st1" d="M460.5,192.5c-3.3,1-6.8-0.9-7.8-4.2s0.9-6.8,4.2-7.8c3.3-1,6.8,0.9,7.8,4.2l0,0
		C465.7,188,463.8,191.5,460.5,192.5L460.5,192.5z"/>
	<line class="st1" x1="467.7" y1="170.5" x2="461.1" y2="180.6"/>
	<circle class="st4" cx="468.9" cy="168.5" r="2.3"/>
	<line class="st1" x1="470.9" y1="193.4" x2="463.9" y2="189.9"/>
	<circle class="st5" cx="472.2" cy="194" r="1.5"/>
	<line class="st1" x1="456.8" y1="202.3" x2="457.5" y2="192.8"/>
	<circle class="st3" cx="456.7" cy="204.1" r="1.8"/>
	<line class="st1" x1="446.4" y1="186.8" x2="452.4" y2="186.5"/>
	<circle class="st4" cx="445.3" cy="186.9" r="1.1"/>
	<line class="st1" x1="448.3" y1="176.1" x2="454.3" y2="181.8"/>
	<circle class="st3" cx="447.1" cy="175" r="1.6"/>
</g>
<g>
	<path class="st6" d="M369.4,82.1h7.5v18.4c0,0-0.5,6.6,5.3,6.6v7.4c0,0-12.8,0.8-12.8-10.8V82.1z"/>
	<path class="st2" d="M394.9,82.1h-7.5v18.4c0,0,0.5,6.6-5.3,6.6v7.4c0,0,12.8,0.8,12.8-10.8V82.1z"/>
	<line class="st7" x1="369.4" y1="80.3" x2="377" y2="80.3"/>
	<line class="st7" x1="387.3" y1="80.3" x2="394.9" y2="80.3"/>
</g>
<g>
	<path class="st8" d="M426.8,158.2c-5.1-8.5-13.7-1.4-14.9,1.5c-0.6,1.7-1.6,3.2-3,4.4l-3,1.8l2.2,3.6l2.2,3.6l3-1.8
		c1.7-0.7,3.5-0.9,5.3-0.6C421.7,171,432,166.7,426.8,158.2z"/>
	
		<rect x="404.8" y="166.5" transform="matrix(0.8563 -0.5165 0.5165 0.8563 -29.8419 234.2372)" class="st9" width="2.4" height="8.5"/>
	<line class="st10" x1="410.9" y1="167.8" x2="414.7" y2="165.5"/>
	<line class="st10" x1="416" y1="167.5" x2="413.5" y2="163.4"/>
</g>
<g>
	<path class="st8" d="M521.7,108.4c-9.9,0.7-7.5,11.5-5.4,14c1.2,1.3,2.1,2.9,2.5,4.7l0.3,3.5l4.2-0.3l4.2-0.3l-0.3-3.5
		c0.1-1.8,0.8-3.5,1.8-5C530.7,118.7,531.6,107.6,521.7,108.4z"/>
	
		<rect x="519.1" y="131.3" transform="matrix(0.9975 -7.020319e-02 7.020319e-02 0.9975 -8.0103 37.0666)" class="st9" width="8.5" height="2.4"/>
	<line class="st10" x1="523" y1="126.9" x2="522.7" y2="122.4"/>
	<line class="st10" x1="525.1" y1="122.3" x2="520.3" y2="122.6"/>
</g>
<g>
	<rect x="419.2" y="94.8" class="st0" width="37.6" height="40.6"/>
	<circle class="st8" cx="438.1" cy="115.2" r="2.9"/>
	<path class="st1" d="M440.6,111.6c1.5,0.5,2.4,2.1,2.1,3.6h13c0,0,1.1-8.6-8-14.5L440.6,111.6z"/>
	<path class="st1" d="M440.3,119c-1.2,1-3,1-4.2,0l-6.3,11.3c0,0,6.9,5.1,16.6,0L440.3,119z"/>
	<path class="st1" d="M433.6,115.2c-0.3-1.6,0.6-3.1,2.1-3.6l-6.6-11.2c0,0-7.9,3.4-8.4,14.3L433.6,115.2z"/>
	<path class="st11" d="M431.7,100.7c4-2.2,8.9-2.2,12.9,0"/>
	<path class="st11" d="M454.8,117.5c-0.4,4.6-3.2,8.8-7.3,10.9"/>
	<path class="st11" d="M428.8,128.4c-4.1-2.5-6.7-6.9-6.8-11.7"/>
</g>
<g>
	<rect x="459" y="121.1" class="st0" width="45.7" height="38.1"/>
	<polyline class="st1" points="461,139.5 480.3,130.6 480.3,145.7 497.9,134.8 497.6,157.3 	"/>
	<line class="st1" x1="480.3" y1="130.6" x2="478.9" y2="122.5"/>
	<line class="st1" x1="480.3" y1="145.7" x2="485.4" y2="156.9"/>
	<circle class="st12" cx="480.3" cy="145.7" r="2"/>
	<circle class="st4" cx="497.8" cy="157.1" r="2.3"/>
	<circle class="st3" cx="497.9" cy="134.8" r="2"/>
	<circle class="st3" cx="485.3" cy="156.2" r="1.5"/>
	<circle class="st4" cx="478.9" cy="122.5" r="2"/>
	<circle class="st5" cx="461" cy="139.5" r="2"/>
	<circle class="st5" cx="480.3" cy="130.6" r="1.4"/>
</g>
<g>
	<rect x="139.7" y="86.5" class="st0" width="41.1" height="41.1"/>
	<polyline class="st1" points="141.8,105.5 161.1,96.6 161.1,111.7 178.7,100.8 178.4,123.3 	"/>
	<line class="st1" x1="161.1" y1="96.6" x2="159.7" y2="88.5"/>
	<line class="st1" x1="161.1" y1="111.7" x2="166.2" y2="122.9"/>
	<circle class="st12" cx="161.1" cy="111.7" r="2"/>
	<circle class="st4" cx="178.6" cy="123.1" r="2.3"/>
	<circle class="st3" cx="178.7" cy="100.8" r="2"/>
	<circle class="st3" cx="166.1" cy="122.2" r="1.5"/>
	<circle class="st4" cx="159.7" cy="88.5" r="2"/>
	<circle class="st5" cx="141.8" cy="105.5" r="2"/>
	<circle class="st5" cx="161.1" cy="96.6" r="1.4"/>
</g>
<g>
	<rect x="484.5" y="229.4" class="st0" width="31.9" height="31.9"/>
	
		<ellipse transform="matrix(2.251706e-02 -0.9997 0.9997 2.251706e-02 243.7282 740.3638)" class="st1" cx="500.5" cy="245.5" rx="4.7" ry="15"/>
	<ellipse transform="matrix(0.5194 -0.8545 0.8545 0.5194 30.7176 545.6967)" class="st1" cx="500.5" cy="245.5" rx="15" ry="4.7"/>
	
		<ellipse transform="matrix(0.8771 -0.4804 0.4804 0.8771 -56.3918 270.6704)" class="st1" cx="500.6" cy="245.5" rx="4.7" ry="15"/>
	<circle class="st2" cx="500.6" cy="245.5" r="1.7"/>
	<circle class="st3" cx="513.9" cy="248.1" r="1.7"/>
	<circle class="st3" cx="491.7" cy="256" r="1.7"/>
	<circle class="st3" cx="495.7" cy="232.6" r="1.7"/>
</g>
<g>
	<rect x="367.6" y="21.8" class="st0" width="33.2" height="29.5"/>
	
		<ellipse transform="matrix(2.251706e-02 -0.9997 0.9997 2.251706e-02 338.5455 420.563)" class="st1" cx="384.3" cy="37.2" rx="4.7" ry="15"/>
	<ellipse transform="matrix(0.5194 -0.8545 0.8545 0.5194 152.9383 346.2237)" class="st1" cx="384.3" cy="37.1" rx="15" ry="4.7"/>
	<ellipse transform="matrix(0.8771 -0.4804 0.4804 0.8771 29.4733 189.1675)" class="st1" cx="384.3" cy="37" rx="4.7" ry="15"/>
	<circle class="st2" cx="384.3" cy="37.1" r="1.7"/>
	<circle class="st3" cx="397.6" cy="39.6" r="1.7"/>
	<circle class="st3" cx="375.4" cy="47.5" r="1.7"/>
	<circle class="st3" cx="379.4" cy="24.2" r="1.7"/>
</g>
<g>
	<rect x="214.8" y="3.7" class="st0" width="45.7" height="47"/>
	<ellipse transform="matrix(0.9116 -0.4111 0.4111 0.9116 9.6502 100.0755)" class="st1" cx="237.5" cy="27.6" rx="22.7" ry="7"/>
	
		<ellipse transform="matrix(9.981938e-02 -0.995 0.995 9.981938e-02 186.2596 260.964)" class="st1" cx="237.4" cy="27.5" rx="22.7" ry="7"/>
	<ellipse transform="matrix(0.5839 -0.8118 0.8118 0.5839 76.4995 204.2639)" class="st1" cx="237.5" cy="27.5" rx="7" ry="22.7"/>
	<ellipse class="st2" cx="237.5" cy="27.6" rx="2.6" ry="2.6"/>
	<ellipse class="st3" cx="257.2" cy="22.4" rx="2.6" ry="2.6"/>
	<ellipse class="st3" cx="232.2" cy="47.7" rx="2.6" ry="2.6"/>
	<ellipse class="st3" cx="222.4" cy="13.2" rx="2.6" ry="2.6"/>
</g>
<g>
	<rect x="137.8" y="21.9" class="st0" width="31" height="39.4"/>
	<path class="st1" d="M153,35.1c3.3-1,6.8,0.9,7.8,4.2s-0.9,6.8-4.2,7.8s-6.8-0.9-7.8-4.2C147.7,39.6,149.6,36.1,153,35.1L153,35.1z
		"/>
	<line class="st1" x1="145.7" y1="57.1" x2="152.3" y2="46.9"/>
	<circle class="st4" cx="144.5" cy="59" r="2.3"/>
	<line class="st1" x1="142.6" y1="34.2" x2="149.6" y2="37.6"/>
	<circle class="st5" cx="141.2" cy="33.5" r="1.5"/>
	<line class="st1" x1="156.6" y1="25.3" x2="155.9" y2="34.8"/>
	<circle class="st3" cx="156.8" cy="23.5" r="1.8"/>
	<line class="st1" x1="167" y1="40.8" x2="161" y2="41.1"/>
	<circle class="st4" cx="168.1" cy="40.7" r="1.1"/>
	<line class="st1" x1="165.1" y1="51.5" x2="159.1" y2="45.7"/>
	<circle class="st3" cx="166.3" cy="52.6" r="1.6"/>
</g>
<g>
	<rect x="279.3" y="18.7" class="st0" width="44.3" height="34.3"/>
	<path class="st1" d="M295.5,38.1c-1.9-2.9-1.1-6.8,1.8-8.7c2.9-1.9,6.8-1.1,8.7,1.8c1.9,2.9,1.1,6.8-1.8,8.7
		C301.3,41.8,297.4,41,295.5,38.1L295.5,38.1z"/>
	<line class="st1" x1="318.7" y1="38.7" x2="307.1" y2="35.3"/>
	<circle class="st4" cx="320.9" cy="39.4" r="2.3"/>
	<line class="st1" x1="297.7" y1="48.4" x2="299" y2="40.7"/>
	<circle class="st5" cx="297.4" cy="49.8" r="1.5"/>
	<line class="st1" x1="285.1" y1="37.4" x2="294.4" y2="35.4"/>
	<circle class="st3" cx="283.3" cy="37.8" r="1.8"/>
	<line class="st1" x1="297" y1="23.1" x2="299" y2="28.7"/>
	<circle class="st4" cx="296.6" cy="22" r="1.1"/>
	<line class="st1" x1="307.8" y1="21.8" x2="304" y2="29.2"/>
	<circle class="st3" cx="308.5" cy="20.3" r="1.6"/>
</g>
<g>
	<path class="st6" d="M559.4,209.1l3.6,5.3l-13,8.7c0,0-4.9,2.8-2.1,6.8l-5.2,3.5c0,0-6.6-8.6,1.6-14.1L559.4,209.1z"/>
	<path class="st2" d="M571.5,227.1l-3.6-5.3l-13,8.7c0,0-4.4,3.5-7.1-0.6l-5.2,3.5c0,0,5.5,9.4,13.6,3.9L571.5,227.1z"/>
	<line class="st7" x1="560.7" y1="208.2" x2="564.3" y2="213.6"/>
	<line class="st7" x1="569.2" y1="220.9" x2="572.8" y2="226.2"/>
</g>
<g>
	<path class="st8" d="M522.9,213.5c9.4-7.1,0-16.3-3.7-17.4c-4-1.1-5.5-3-5.5-3l-2.5-3.4l-4,3l-4,3l2.5,3.4c0,0,1.4,2,1.4,6.1
		C507.2,209,513.4,220.6,522.9,213.5z"/>
	
		<rect x="500.5" y="189.2" transform="matrix(0.7973 -0.6036 0.6036 0.7973 -12.5989 343.7615)" class="st9" width="10" height="2.9"/>
	<line class="st10" x1="509.6" y1="195.9" x2="512.8" y2="200.1"/>
	<line class="st10" x1="510.5" y1="201.9" x2="515" y2="198.4"/>
</g>
<g>
	<rect x="435.1" y="230.9" class="st0" width="29.3" height="26.8"/>
	<circle class="st8" cx="449.5" cy="244" r="1.8"/>
	<path class="st1" d="M450.8,246.4c-0.7,0.7-1.8,0.7-2.6,0.2l-3.5,7.2c0,0,4.4,2.9,10.2-0.6L450.8,246.4z"/>
	<path class="st1" d="M446.8,244.3c-0.2-0.9,0.2-1.9,1.1-2.3l-4.6-6.5c0,0-4.7,2.5-4.4,9.2L446.8,244.3z"/>
	<path class="st1" d="M450.7,241.6c0.9,0.3,1.5,1.1,1.5,2.1l7.9-0.7c0,0,0.2-5.3-5.7-8.4L450.7,241.6z"/>
	<path class="st11" d="M459.2,244.4c0.2,2.8-1.1,5.5-3.4,7.1"/>
	<path class="st11" d="M443.7,252.6c-2.5-1.5-4-4.1-4.1-6.9"/>
	<path class="st11" d="M444.7,235.4c2.5-1.6,5.6-1.9,8.3-0.6"/>
</g>
<g>
	<rect x="32.8" y="19" class="st0" width="59.1" height="58.9"/>
	<polyline class="st1" points="61.5,75 49.4,49 69.8,48.9 55,25.2 85.4,25.5 	"/>
	<line class="st1" x1="49.4" y1="49" x2="38.5" y2="51"/>
	<line class="st1" x1="69.8" y1="48.9" x2="85" y2="41.9"/>
	<circle class="st12" cx="69.8" cy="48.9" r="2.6"/>
	<circle class="st4" cx="85.2" cy="25.3" r="3.1"/>
	<circle class="st3" cx="55" cy="25.2" r="2.6"/>
	<circle class="st3" cx="84" cy="42.1" r="2"/>
	<circle class="st4" cx="38.5" cy="51" r="2.6"/>
	<circle class="st5" cx="61.5" cy="75" r="2.6"/>
	<circle class="st5" cx="49.4" cy="49" r="1.9"/>
</g>
<g>
	<rect x="54.5" y="77.9" class="st0" width="57.1" height="55.2"/>
	
		<ellipse transform="matrix(0.9215 -0.3885 0.3885 0.9215 -34.6386 40.4852)" class="st1" cx="82.8" cy="105.9" rx="26.5" ry="8.2"/>
	
		<ellipse transform="matrix(0.1243 -0.9922 0.9922 0.1243 -32.5887 174.6818)" class="st1" cx="82.7" cy="105.8" rx="26.5" ry="8.2"/>
	<ellipse transform="matrix(0.6 -0.8 0.8 0.6 -51.1428 108.3708)" class="st1" cx="82.8" cy="105.3" rx="8.2" ry="26.5"/>
	<circle class="st2" cx="82.7" cy="105.8" r="3.1"/>
	<circle class="st3" cx="59.6" cy="111.3" r="3.1"/>
	<circle class="st3" cx="89.5" cy="82.6" r="3.1"/>
	<circle class="st3" cx="99.9" cy="123" r="3.1"/>
</g>
<g>
	<rect x="98.9" y="33.5" class="st0" width="21.7" height="20.1"/>
	<path class="st6" d="M118.7,38.6l-1.1,4.1l-10-2.7c0,0-3.5-1.2-4.4,1.9l-4-1.1c0,0,1.4-7.1,7.8-5.4L118.7,38.6z"/>
	<path class="st2" d="M115,52.6l1.1-4.1l-10-2.7c0,0-3.7-0.7-2.8-3.8l-4-1.1c0,0-2.3,6.8,4,8.5L115,52.6z"/>
	<line class="st7" x1="119.7" y1="38.9" x2="118.6" y2="43.1"/>
	<line class="st7" x1="117" y1="48.7" x2="115.9" y2="52.8"/>
</g>
<g>
	<path class="st6" d="M339.8,192l-3,3l-7.4-7.3c0,0-2.4-2.8-4.7-0.5l-2.9-2.9c0,0,4.8-5.4,9.4-0.8L339.8,192z"/>
	<path class="st2" d="M329.6,202.2l3-3l-7.4-7.3c0,0-2.8-2.4-0.5-4.7l-2.9-2.9c0,0-5.4,4.8-0.8,9.4L329.6,202.2z"/>
	<line class="st7" x1="340.5" y1="192.7" x2="337.5" y2="195.8"/>
	<line class="st7" x1="333.4" y1="199.9" x2="330.3" y2="202.9"/>
</g>
<g>
	<path class="st8" d="M325.6,242.6c7.9-3.4,2.9-11.5,0.5-12.9c-1.4-0.7-2.5-1.8-3.3-3.1l-1.2-2.8l-3.4,1.4l-3.4,1.4l1.2,2.8
		c0.4,1.5,0.4,3.1-0.1,4.6C315.4,236.7,317.7,245.9,325.6,242.6z"/>
	
		<rect x="313.8" y="222.3" transform="matrix(0.9206 -0.3904 0.3904 0.9206 -62.0034 141.6578)" class="st9" width="7.3" height="2.1"/>
	<line class="st10" x1="319.4" y1="227.9" x2="320.9" y2="231.4"/>
	<line class="st10" x1="319" y1="232.2" x2="322.8" y2="230.6"/>
</g>
<g>
	<rect x="266.5" y="191.6" class="st0" width="27.4" height="24.6"/>
	<path class="st11" d="M271.1,207.2c-1-2.7-0.6-5.7,1.1-8"/>
	<circle class="st8" cx="281" cy="204" r="1.8"/>
	<path class="st1" d="M280.6,206.6c-1,0.1-1.9-0.5-2.1-1.4l-7.2,3.4c0,0,1.7,5,8.3,5.9L280.6,206.6z"/>
	<path class="st1" d="M278.7,202.5c0.4-0.9,1.3-1.4,2.3-1.2l0.4-7.9c0,0-5.2-1-9.2,4.4L278.7,202.5z"/>
	<path class="st1" d="M283.5,202.8c0.6,0.8,0.5,1.9-0.1,2.6l6.7,4.3c0,0,3.5-4,0.8-10.1L283.5,202.8z"/>
	<path class="st11" d="M288.4,210.2c-1.6,2.3-4.3,3.6-7.1,3.5"/>
	<path class="st11" d="M282.6,194.2c2.9,0.2,5.6,2,6.9,4.6"/>
</g>
<g>
	<rect x="459" y="21.5" class="st0" width="23.8" height="23.8"/>
	<path class="st11" d="M460.7,36.9c-1-2.7-0.6-5.7,1.1-8"/>
	<circle class="st8" cx="470.5" cy="33.7" r="1.8"/>
	<path class="st1" d="M470.1,36.4c-1,0.1-1.9-0.5-2.1-1.4l-7.2,3.4c0,0,1.7,5,8.3,5.9L470.1,36.4z"/>
	<path class="st1" d="M468.3,32.2c0.4-0.9,1.3-1.4,2.3-1.2l0.4-7.9c0,0-5.2-1-9.2,4.4L468.3,32.2z"/>
	<path class="st1" d="M473,32.5c0.6,0.8,0.5,1.9-0.1,2.6l6.7,4.3c0,0,3.5-4,0.8-10.1L473,32.5z"/>
	<path class="st11" d="M478,40c-1.6,2.3-4.3,3.6-7.1,3.5"/>
	<path class="st11" d="M472.1,23.9c2.9,0.2,5.6,2,6.9,4.6"/>
</g>
<g>
	<rect x="365.1" y="180.2" class="st0" width="61" height="45.4"/>
	<polyline class="st1" points="367.7,211.3 388.9,192.8 394.5,212 412.9,191.6 420.9,220.3 	"/>
	<line class="st1" x1="388.9" y1="192.8" x2="384.1" y2="183.1"/>
	<line class="st1" x1="394.5" y1="212" x2="405.3" y2="224.4"/>
	<circle class="st12" cx="394.5" cy="212" r="2.6"/>
	<circle class="st4" cx="421" cy="220.1" r="3"/>
	<circle class="st3" cx="412.9" cy="191.6" r="2.6"/>
	<circle class="st3" cx="404.9" cy="223.6" r="2"/>
	<circle class="st4" cx="384.1" cy="183.1" r="2.6"/>
	<circle class="st5" cx="367.7" cy="211.3" r="2.6"/>
	<circle class="st5" cx="388.9" cy="192.8" r="1.8"/>
</g>
<g>
	<rect x="227.4" y="223.1" class="st0" width="60.3" height="49.6"/>
	<polyline class="st1" points="237.2,270 241.8,242.3 258.4,253.5 259.6,226.1 284,243.1 	"/>
	<line class="st1" x1="241.8" y1="242.3" x2="231.9" y2="237.8"/>
	<line class="st1" x1="258.4" y1="253.5" x2="274.6" y2="256.2"/>
	<circle class="st12" cx="258.4" cy="253.5" r="2.6"/>
	<ellipse transform="matrix(0.7715 -0.6362 0.6362 0.7715 -89.646 236.1756)" class="st4" cx="284" cy="242.9" rx="3" ry="3.1"/>
	<circle class="st3" cx="259.6" cy="226.1" r="2.6"/>
	
		<ellipse transform="matrix(0.7715 -0.6362 0.6362 0.7715 -100.2619 232.5913)" class="st3" cx="273.7" cy="255.9" rx="2" ry="1.9"/>
	<circle class="st4" cx="231.9" cy="237.8" r="2.6"/>
	<circle class="st5" cx="237.2" cy="270" r="2.6"/>
	<circle class="st5" cx="241.8" cy="242.3" r="1.8"/>
</g>
<g>
	<rect x="152.1" y="144.1" class="st0" width="46.1" height="50.1"/>
	
		<ellipse transform="matrix(4.992815e-02 -0.9988 0.9988 4.992815e-02 -2.3351 335.9344)" class="st1" cx="175.4" cy="169.2" rx="24.5" ry="7.6"/>
	
		<ellipse transform="matrix(0.5398 -0.8418 0.8418 0.5398 -61.8666 224.4463)" class="st1" cx="174.3" cy="168.8" rx="7.6" ry="24.5"/>
	
		<ellipse transform="matrix(0.8884 -0.4591 0.4591 0.8884 -58.0068 98.8058)" class="st1" cx="174.2" cy="168.7" rx="24.5" ry="7.6"/>
	<circle class="st2" cx="174.2" cy="168.7" r="2.8"/>
	<circle class="st3" cx="169.6" cy="190.2" r="2.8"/>
	<circle class="st3" cx="157.5" cy="153.8" r="2.8"/>
	<circle class="st3" cx="195.4" cy="161.3" r="2.8"/>
</g>
<g>
	<rect x="96.8" y="134.7" class="st0" width="33" height="41.4"/>
	<path class="st1" d="M112.8,148.9c3.4-0.8,6.8,1.2,7.6,4.6c0.8,3.4-1.2,6.8-4.6,7.6s-6.8-1.2-7.6-4.6
		C107.3,153.1,109.4,149.7,112.8,148.9L112.8,148.9z"/>
	<line class="st1" x1="104.6" y1="170.5" x2="111.6" y2="160.7"/>
	<circle class="st4" cx="103.2" cy="172.4" r="2.3"/>
	<line class="st1" x1="102.4" y1="147.5" x2="109.3" y2="151.3"/>
	<circle class="st5" cx="101.1" cy="146.8" r="1.5"/>
	<line class="st1" x1="116.9" y1="139.3" x2="115.7" y2="148.8"/>
	<circle class="st3" cx="117.1" cy="137.5" r="1.8"/>
	<line class="st1" x1="126.5" y1="155.2" x2="120.6" y2="155.3"/>
	<circle class="st4" cx="127.7" cy="155.2" r="1.1"/>
	<line class="st1" x1="124.2" y1="165.8" x2="118.4" y2="159.8"/>
	<circle class="st3" cx="125.3" cy="167" r="1.6"/>
</g>
<g>
	
		<rect x="514.5" y="15.3" transform="matrix(0.9174 -0.398 0.398 0.9174 27.2184 217.3858)" class="st0" width="45.5" height="55.7"/>
	<path class="st1" d="M529.7,36.5c2.5-3.8,7.7-4.8,11.5-2.3s4.8,7.7,2.3,11.5s-7.7,4.8-11.5,2.3S527.1,40.3,529.7,36.5L529.7,36.5z"
		/>
	<line class="st1" x1="540.9" y1="64.8" x2="539" y2="49"/>
	<circle class="st4" cx="541.3" cy="67.9" r="3.1"/>
	<line class="st1" x1="518.4" y1="44.4" x2="528.4" y2="41.9"/>
	<circle class="st5" cx="516.5" cy="44.8" r="2"/>
	<line class="st1" x1="525.2" y1="23.5" x2="532.4" y2="33.8"/>
	<circle class="st3" cx="523.8" cy="21.5" r="2.4"/>
	<line class="st1" x1="548.7" y1="30.5" x2="542.9" y2="35.8"/>
	<circle class="st4" cx="549.8" cy="29.4" r="1.5"/>
	<line class="st1" x1="555.9" y1="42.8" x2="544.9" y2="42.1"/>
	<circle class="st3" cx="558" cy="43" r="2.1"/>
</g>
<g>
	<path class="st8" d="M204.6,218.4c6.7,12.4,19.3,3,21.3-1.2c0.9-2.4,2.5-4.4,4.6-6l4.4-2.4l-2.8-5.3l-2.8-5.3l-4.6,2.4
		c-2.4,0.9-5,1.1-7.5,0.6C212.6,200.6,197.8,206,204.6,218.4z"/>
	<rect x="233" y="196" transform="matrix(0.8794 -0.4761 0.4761 0.8794 -67.8648 136.1047)" class="st9" width="3.4" height="12"/>
	<line class="st10" x1="227.7" y1="205.9" x2="222.1" y2="208.9"/>
	<line class="st10" x1="220.5" y1="205.9" x2="223.8" y2="211.9"/>
</g>
</svg>
